<svg xmlns="http://www.w3.org/2000/svg" xmlns:xlink="http://www.w3.org/1999/xlink" width="1789.765" height="1789.765" viewBox="0 0 1789.765 1789.765"><defs><radialGradient id="a" cx="0.5" cy="0.5" r="0.5" gradientUnits="objectBoundingBox"><stop offset="0.006" stop-color="#7e7589" stop-opacity="0.502"/><stop offset="1" stop-opacity="0"/></radialGradient><filter id="b" x="406.751" y="406.751" width="976.262" height="976.262" filterUnits="userSpaceOnUse"><feOffset input="SourceAlpha"/><feGaussianBlur stdDeviation="5" result="c"/><feFlood flood-color="#fff" flood-opacity="0.51"/><feComposite operator="in" in2="c"/><feComposite in="SourceGraphic"/></filter><filter id="d" x="251.987" y="251.987" width="1285.791" height="1285.791" filterUnits="userSpaceOnUse"><feOffset input="SourceAlpha"/><feGaussianBlur stdDeviation="5" result="e"/><feFlood flood-color="#fff" flood-opacity="0.51"/><feComposite operator="in" in2="e"/><feComposite in="SourceGraphic"/></filter><filter id="f" x="56.287" y="56.287" width="1677.191" height="1677.191" filterUnits="userSpaceOnUse"><feOffset input="SourceAlpha"/><feGaussianBlur stdDeviation="5" result="g"/><feFlood flood-color="#00fff8" flood-opacity="0.51"/><feComposite operator="in" in2="g"/><feComposite in="SourceGraphic"/></filter><filter id="h" x="560.231" y="560.231" width="669.303" height="669.303" filterUnits="userSpaceOnUse"><feOffset input="SourceAlpha"/><feGaussianBlur stdDeviation="5" result="i"/><feFlood flood-color="#00fff8" flood-opacity="0.51"/><feComposite operator="in" in2="i"/><feComposite in="SourceGraphic"/></filter></defs><circle cx="894.882" cy="894.882" r="894.882" fill="url(#a)" style="mix-blend-mode:screen;isolation:isolate"/><g transform="matrix(1, 0, 0, 1, 0, 0)" filter="url(#b)"><circle cx="471.631" cy="471.631" r="471.631" transform="translate(423.25 423.25)" fill="none" stroke="#fff" stroke-miterlimit="10" stroke-width="3" opacity="0.1"/></g><g transform="matrix(1, 0, 0, 1, 0, 0)" filter="url(#d)"><circle cx="625.395" cy="625.395" r="625.395" transform="translate(269.49 269.49)" fill="none" stroke="#fff" stroke-miterlimit="10" stroke-width="5" opacity="0.1"/></g><g transform="matrix(1, 0, 0, 1, 0, 0)" filter="url(#f)"><circle cx="808.944" cy="808.944" r="808.944" transform="translate(85.94 85.94)" fill="none" stroke="#fff" stroke-miterlimit="10" stroke-width="29.304" opacity="0.015"/></g><g transform="matrix(1, 0, 0, 1, 0, 0)" filter="url(#h)"><circle cx="318.151" cy="318.151" r="318.151" transform="translate(576.73 576.73)" fill="none" stroke="#fff" stroke-miterlimit="10" stroke-width="3" opacity="0.02"/></g></svg>