<svg width="755" height="300" viewBox="0 0 936 426" fill="none" xmlns="http://www.w3.org/2000/svg">
<g filter="url(#filter0_d)">
<rect x="49" y="49.4678" width="837.449" height="327.064" rx="8" fill="#444BA5"/>
</g>
<path fill-rule="evenodd" clip-rule="evenodd" d="M168.755 26.3983C174.307 24.8149 180.257 24 186.266 24V30.239C181.447 30.239 176.675 30.8926 172.223 32.1624C168.725 33.16 165.479 34.5225 162.595 36.1985C163.195 36.1624 163.8 36.144 164.411 36.144C177.679 36.144 188.434 44.8279 188.434 55.54C188.434 66.2522 177.679 74.9361 164.411 74.9361C151.143 74.9361 140.388 66.2522 140.388 55.54C140.388 54.2978 140.532 53.083 140.809 51.9057C141.293 49.0047 142.362 46.1582 143.992 43.4496C146.291 39.627 149.662 36.1538 153.911 33.2281C158.16 30.3024 163.204 27.9817 168.755 26.3983Z" fill="white"/>
<path fill-rule="evenodd" clip-rule="evenodd" d="M116.55 26.3983C122.102 24.8149 128.052 24 134.061 24V30.239C129.242 30.239 124.47 30.8926 120.018 32.1624C116.52 33.16 113.274 34.5225 110.39 36.1985C110.989 36.1624 111.595 36.144 112.206 36.144C125.473 36.144 136.229 44.8279 136.229 55.54C136.229 66.2522 125.473 74.9361 112.206 74.9361C98.9382 74.9361 88.1826 66.2522 88.1826 55.54C88.1826 54.2978 88.3272 53.083 88.6036 51.9057C89.0883 49.0047 90.1574 46.1582 91.7868 43.4496C94.0863 39.627 97.4567 36.1538 101.706 33.2281C105.955 30.3024 110.999 27.9817 116.55 26.3983Z" fill="white"/>
<path fill-rule="evenodd" clip-rule="evenodd" d="M780.931 399.602C775.38 401.185 769.43 402 763.421 402V395.761C768.24 395.761 773.012 395.107 777.464 393.838C780.961 392.84 784.208 391.477 787.091 389.801C786.492 389.838 785.886 389.856 785.276 389.856C772.008 389.856 761.252 381.172 761.252 370.46C761.252 359.748 772.008 351.064 785.276 351.064C798.543 351.064 809.299 359.748 809.299 370.46C809.299 371.702 809.154 372.917 808.878 374.094C808.393 376.995 807.324 379.842 805.695 382.55C803.395 386.373 800.025 389.846 795.776 392.772C791.527 395.698 786.483 398.018 780.931 399.602Z" fill="white"/>
<path fill-rule="evenodd" clip-rule="evenodd" d="M833.136 399.602C827.585 401.185 821.635 402 815.626 402V395.761C820.445 395.761 825.217 395.107 829.669 393.838C833.166 392.84 836.413 391.477 839.296 389.801C838.697 389.838 838.092 389.856 837.481 389.856C824.213 389.856 813.458 381.172 813.458 370.46C813.458 359.748 824.213 351.064 837.481 351.064C850.748 351.064 861.504 359.748 861.504 370.46C861.504 371.702 861.359 372.917 861.083 374.094C860.598 376.995 859.529 379.842 857.9 382.55C855.6 386.373 852.23 389.846 847.981 392.772C843.732 395.698 838.688 398.018 833.136 399.602Z" fill="white"/>
<defs>
<filter id="filter0_d" x="0" y="0.467773" width="935.449" height="425.064" filterUnits="userSpaceOnUse" color-interpolation-filters="sRGB">
<feFlood flood-opacity="0" result="BackgroundImageFix"/>
<feColorMatrix in="SourceAlpha" type="matrix" values="0 0 0 0 0 0 0 0 0 0 0 0 0 0 0 0 0 0 127 0"/>
<feOffset/>
<feGaussianBlur stdDeviation="24.5"/>
<feColorMatrix type="matrix" values="0 0 0 0 0 0 0 0 0 0 0 0 0 0 0 0 0 0 0.25 0"/>
<feBlend mode="normal" in2="BackgroundImageFix" result="effect1_dropShadow"/>
<feBlend mode="normal" in="SourceGraphic" in2="effect1_dropShadow" result="shape"/>
</filter>
</defs>
</svg>
