<svg width="100%" height="304" viewBox="0 0 1920 304" fill="none" xmlns="http://www.w3.org/2000/svg">
<path id="Vector" d="M552.11 222.292C558.512 218.416 566.782 214.741 576.604 211.606C597.94 204.797 621.394 202.197 639.026 203.908C618.797 207.233 571.788 225.494 586.019 232.377C586.019 232.377 588.035 231.341 645.297 251.132C732.688 281.333 958.067 259.657 958.067 259.657C984.424 257.638 1010.98 255.017 1037.51 251.695C1024.36 243.146 1008.3 235.575 988.501 230.263C974.479 226.502 959.212 223.929 943.551 222.15V221.758C968.902 224.244 993.2 228.817 1013.8 236.641C1024.73 240.798 1034.39 245.691 1042.85 251.023C1044.65 250.789 1046.46 250.555 1048.27 250.316C1047.91 236.559 1042.85 222.755 1029.91 210.109C1016.63 197.125 996.366 185.969 974.191 176.263C974.376 176.339 974.562 176.415 974.748 176.49C1006.63 189.559 1033.8 205.511 1046.2 225.036C1051.22 232.951 1053.83 241.184 1054.58 249.466C1062.47 248.387 1070.35 247.242 1078.23 246.034C1195.97 227.962 1277.15 224.196 1395.96 240.311C1400.97 236.11 1401.4 230.611 1394.56 223.423L1394.47 223.38L1392.94 222.716C1392.69 222.602 1392.42 222.497 1392.16 222.388L1391.38 222.066C1390.86 221.848 1390.32 221.647 1389.79 221.442L1388.2 220.829C1387.65 220.634 1387.11 220.445 1386.57 220.252L1385.76 219.964C1385.62 219.917 1385.49 219.866 1385.35 219.821L1384.94 219.687L1383.27 219.147C1382.72 218.961 1382.16 218.8 1381.59 218.629L1380.75 218.377L1380.33 218.251C1380.2 218.209 1380.06 218.165 1379.91 218.127L1378.2 217.659L1377.34 217.425L1376.47 217.209L1374.73 216.776L1372.98 216.379L1372.1 216.181C1371.81 216.119 1371.51 216.06 1371.21 215.999L1369.43 215.636L1367.64 215.306C1367.34 215.253 1367.05 215.195 1366.75 215.144L1365.84 214.996L1364.94 214.848C1364.64 214.801 1364.34 214.746 1364.03 214.706L1362.21 214.443L1361.75 214.378L1361.29 214.32L1360.39 214.205L1359.47 214.09C1359.32 214.07 1359.17 214.054 1359.01 214.037L1358.55 213.986C1357.94 213.92 1357.32 213.849 1356.71 213.788L1354.85 213.617C1352.39 213.404 1349.91 213.252 1347.43 213.153C1344.94 213.053 1342.44 213.025 1339.95 213.046C1338.67 213.057 1337.38 213.084 1336.1 213.126C1335.86 213.239 1335.63 213.346 1335.4 213.448C1337.32 213.487 1339.47 213.787 1341.63 214.382C1346.04 215.587 1353.64 219.508 1366.69 224.077C1364.17 225.065 1343.51 220.569 1339.11 219.365C1337.34 218.88 1335.75 218.257 1334.43 217.559C1333.39 218.411 1332.09 219.227 1330.57 219.938C1326.72 221.742 1308.2 229.079 1305.39 228.478C1312.23 224.578 1317.12 221.219 1320.78 218.792C1313.8 219.46 1300.83 218.987 1281.57 220.366C1283.47 217.847 1313.08 212.236 1319.66 211.337C1321.07 211.144 1322.44 211.034 1323.79 210.984C1320.22 208.697 1315.25 203.788 1305.8 197.22C1309.01 197.019 1326.76 205.804 1330.37 207.881C1330.99 208.232 1331.55 208.596 1332.06 208.967C1332.41 208.559 1332.81 208.151 1333.25 207.748C1336.02 205.208 1350.18 194.107 1353.38 193.844C1346.1 202.079 1343.05 207.769 1340.28 210.31C1339.15 211.336 1337.85 212.214 1336.5 212.919L1337.12 212.893C1337.44 212.881 1337.75 212.866 1338.06 212.858L1339 212.83C1339.32 212.82 1339.63 212.811 1339.94 212.807L1340.88 212.791C1341.2 212.785 1341.51 212.778 1341.81 212.778C1342.44 212.778 1343.06 212.772 1343.69 212.775L1345.57 212.792L1347.45 212.835C1349.95 212.907 1352.45 213.047 1354.93 213.24C1357.43 213.431 1359.9 213.705 1362.35 214.026L1364.19 214.282C1364.5 214.322 1364.8 214.374 1365.11 214.421L1366.02 214.567L1366.93 214.712C1367.24 214.761 1367.54 214.818 1367.83 214.871L1369.64 215.194L1371.44 215.554C1371.74 215.615 1372.04 215.673 1372.34 215.736L1373.23 215.934L1374.99 216.332L1376.75 216.766L1377.63 216.983L1378.49 217.217L1380.23 217.688C1380.37 217.725 1380.51 217.769 1380.64 217.811L1381.07 217.938L1381.92 218.191C1382.49 218.362 1383.06 218.524 1383.62 218.711L1385.29 219.257L1385.71 219.394C1385.85 219.439 1385.99 219.49 1386.12 219.538L1386.95 219.83C1387.48 220.025 1388.03 220.217 1388.58 220.415L1390.19 221.036C1390.72 221.244 1391.26 221.446 1391.78 221.667L1392.57 221.993C1392.84 222.102 1393.1 222.209 1393.36 222.323L1393.57 222.42C1389.7 218.63 1383.86 214.386 1375.66 209.631C1388.52 206.769 1404.2 207.22 1418.87 211.466C1418.88 211.24 1418.9 211.014 1418.92 210.788C1405.86 200.793 1389.43 191.758 1368.57 184.99C1345.33 177.448 1318.22 172.92 1290.96 169.984C1291.19 170.004 1291.41 170.024 1291.63 170.044C1329.97 173.549 1367.28 180.421 1396.12 193.434C1404.81 197.356 1412.6 201.714 1419.56 206.369C1419.58 206.289 1419.59 206.209 1419.61 206.13C1423.06 189.756 1454.27 200.705 1454.16 168.228C1465.82 177.046 1472.73 189.283 1472.65 202.644L1472.87 202.559C1473.89 197.913 1475.96 193.321 1479.36 188.952C1487.72 178.247 1504.07 169.786 1522.85 163.016C1522.96 162.977 1523.07 162.938 1523.18 162.898C1510.08 167.952 1497.94 173.848 1489.56 180.882C1482.06 187.189 1478.21 194.157 1476.7 201.217C1486.2 198.128 1496.33 196.604 1505.98 196.738C1506.02 197.181 1506.06 197.624 1506.07 198.069C1506.24 202.118 1511.96 205.169 1518.26 204.434C1518.4 204.418 1518.53 204.402 1518.67 204.386C1530.36 203.047 1536.12 194.629 1529.67 188.321C1528.64 187.317 1538.99 197.281 1549.88 199.074C1552.53 193.163 1556.52 187.391 1562.15 181.989C1567.1 177.235 1573.29 172.914 1580.39 168.978C1561.56 156.44 1537.32 145.798 1511.59 136.569C1511.84 136.652 1512.09 136.735 1512.33 136.819C1538.58 145.607 1562.9 155.844 1582.45 167.859C1594.99 161.196 1610.15 155.667 1626.32 151.022C1626.48 150.977 1626.63 150.933 1626.78 150.889C1610.88 155.802 1595.73 161.57 1583.56 168.552C1595.38 175.917 1605.39 183.945 1612.97 192.711C1618.56 199.164 1622.8 205.866 1625.89 212.698C1630.71 214.091 1635.18 216.282 1638.77 219.185C1640.01 216.164 1642.28 213.446 1645.33 211.286C1648.57 212.703 1651.36 214.659 1653.44 217.01C1661.04 210.954 1667.16 204.456 1671.14 197.499C1678.57 184.547 1678.78 170.818 1675.79 157.538C1675.82 157.646 1675.85 157.753 1675.88 157.861C1681.32 176.338 1679.77 195.438 1663.31 212.69C1660.96 215.154 1658.35 217.558 1655.51 219.901C1656.39 221.448 1656.99 223.111 1657.26 224.863L1657.27 224.891C1657.5 226.428 1659.96 227.421 1662.25 226.906C1666.68 225.908 1671.1 224.524 1675.66 222.748C1671.82 221.963 1668.42 220.65 1665.78 218.957C1674.98 219.665 1676.48 214.018 1683.14 213.082C1682.83 212.482 1682.56 211.871 1682.34 211.244C1680.06 204.91 1689.38 202.718 1687.42 194.259C1695.18 196.924 1701.38 201.975 1703.66 208.309C1703.7 208.412 1703.73 208.515 1703.76 208.618C1707.28 206.574 1710.99 204.368 1714.88 202.005C1718.66 199.721 1716.97 195.665 1711.88 194.922C1699.85 193.167 1689.19 189.671 1680.99 184.925C1711.66 185.335 1711.03 169.428 1732.35 167.89C1713.37 159.139 1691.77 151.673 1667.16 146.435C1632.84 139.134 1594.92 136.236 1557.61 135.45C1557.91 135.451 1558.21 135.453 1558.51 135.454C1610.69 135.738 1663.19 140.57 1707.57 154.439C1717.26 157.464 1726.43 160.843 1735.09 164.504C1731.71 159.483 1727.09 154.586 1712.01 152.855C1718.85 150.851 1726.59 149.708 1734.74 149.503C1713.22 130.512 1705.35 107.999 1705.24 96.1905C1715.08 95.1447 1727.92 96.4358 1742.32 99.7658L1731.58 117.76L1763.56 105.8C1764.64 106.158 1765.72 106.526 1766.79 106.903C1774.96 109.744 1781.16 114.245 1784.15 118.901C1784.4 101.61 1796.42 86.0009 1804.92 79.2279C1810.95 81.3654 1817 85.5879 1822.48 91.3379L1804.34 98.1003L1829.81 100.424C1830.14 100.913 1830.48 101.408 1830.8 101.908C1834.76 107.995 1833.02 115.005 1827.04 118.101C1835.64 116.829 1845.07 116.702 1854.61 117.86C1850.21 107.158 1859.07 95.7324 1836.85 81.8934C1860.29 82.0146 1885.38 89.0611 1904.28 102.324C1905.32 103.058 1906.34 103.801 1907.32 104.554C1904.62 87.987 1897.5 71.285 1883.86 55.237C1866.47 34.78 1840.19 16.4 1811.49 0C1811.72 0.12936 1811.96 0.25872 1812.2 0.38808C1853.45 22.6531 1888.73 48.7691 1905.16 78.8491C1911.28 90.0371 1914.8 101.444 1916.25 112.788C1919.34 116.686 1920.4 120.478 1919.89 123.9C1919.93 123.901 1919.98 123.901 1920.02 123.901L1919.61 303.861H0.10783L0 169.991C0 169.991 0.577112 130.563 23.785 109.988C50.012 86.736 92.062 71.222 133.595 67.096C137.706 72.0617 140.455 77.476 141.797 83.182L101.587 80.7533L142.669 89.0098V89.0103C142.923 92.7999 139.691 96.452 133.827 99.0043C127.963 101.557 120.054 102.753 112.186 102.277C97.691 101.402 83.099 100.521 83.099 100.521L117.506 109.086C117.377 109.338 117.247 109.59 117.115 109.841C113.786 116.203 101.428 120.52 87.7376 120.104C78.8543 119.836 70.6726 119.587 70.6726 119.587L123.552 130.214C122.107 131.657 120.577 133.096 118.965 134.526L118.868 134.611C133.74 133.003 148.308 133.021 161.089 134.628C181.653 130.546 203.516 128.736 224.355 128.766C224.534 128.766 224.712 128.767 224.891 128.767C209.749 128.989 194.014 130.069 178.744 132.406C173.225 133.25 167.873 134.252 162.695 135.39C159.511 147.341 142.574 159.991 115.372 168.673C95.93 174.878 205.414 149.737 205.414 149.737C205.414 149.737 141.187 170.716 154.177 192.683C154.177 192.683 161.349 199.303 167.181 198.631C199.691 194.884 228.875 174.264 250.365 153.936C245.756 142.09 236.112 130.766 219.777 121.069C206.574 113.232 189.873 106.79 171.899 101.598C172.119 101.655 172.338 101.712 172.557 101.77C205.401 110.437 233.216 123.403 247.8 140.199C250.52 143.332 252.78 146.543 254.628 149.811C275.128 129.531 287.584 110.717 287.584 110.717C287.584 110.717 262.695 173.779 296.49 174.764C333.964 175.855 355.917 150.22 309.52 137.532C334.172 138.473 355.025 143.241 367.638 151.964C365.134 142.614 358.348 133.589 345.592 126.017C336.569 120.661 325.155 116.259 312.871 112.71C313.02 112.749 313.17 112.788 313.32 112.828C335.767 118.751 354.777 127.613 364.743 139.092C368.649 143.59 371.167 148.326 372.602 153.157C389.464 131.209 386.664 107.779 367.481 83.1149C403.681 111.123 424.403 139.792 414.235 169.782C418.786 166.426 424.06 163.316 430.177 160.598C446.217 153.469 467.273 149.858 488.811 149.075C488.953 149.07 489.097 149.065 489.241 149.06C477.23 149.724 465.259 151.188 454.424 153.783C434.65 158.519 420.726 166.774 411.649 176.082C410.363 178.747 408.827 181.424 407.032 184.111C396.724 207.73 397.592 246.617 494.149 209.928C486.412 207.102 471.3 218.131 464.279 214.405C459.695 211.973 461.133 213.281 457.374 210.726L486.317 196.456L451.546 206.471C448.069 203.735 445.065 200.969 442.546 198.212L466.91 186.2L439.203 194.18C434.536 187.915 432.441 181.791 433.084 176.265C455.433 176.784 481.366 182.399 504.139 192.198C495.534 176.569 498.736 160.074 509.799 144.862C509.882 144.749 509.965 144.636 510.048 144.524C503.933 154.129 500.513 164.256 501.644 174.305C502.477 181.702 505.879 188.773 511.264 195.453C513.051 196.319 514.813 197.212 516.545 198.131C529.054 204.769 538.54 211.985 544.763 219.116C546.073 209.229 550.095 199.457 558.001 190.351C572.584 173.555 600.399 160.589 633.244 151.922C633.464 151.865 633.682 151.807 633.902 151.75C615.928 156.943 599.227 163.384 586.024 171.221C561.436 185.816 552.009 204.101 552.092 222.299L552.11 222.292ZM1581.01 169.158C1579.7 169.944 1578.44 170.744 1577.21 171.559C1564.91 179.765 1557.72 189.203 1553.83 198.898C1553.9 198.893 1553.97 198.886 1554.04 198.88C1554.62 198.363 1555.23 197.855 1555.9 197.361C1562.57 192.369 1570.98 195.784 1580.55 189.671C1581.85 195.231 1562.6 199.871 1572.52 206.439C1572.68 206.546 1600.44 217.313 1612.4 222.146C1614.41 222.955 1616.92 221.795 1616.36 220.33C1615.11 217.063 1615.13 213.76 1616.38 210.744C1616.76 210.772 1617.13 210.805 1617.52 210.843C1612.19 198.182 1603.05 185.879 1588.57 174.643C1586.16 172.776 1583.64 170.948 1581.01 169.159L1581.01 169.158ZM1779.4 137.833L1784.79 128.87C1784.88 128.726 1784.95 128.58 1785.03 128.436C1785.18 129.025 1785.34 129.613 1785.52 130.203C1786.02 131.798 1786.65 133.353 1787.36 134.876L1779.4 137.833L1779.4 137.833ZM1816.55 121.753L1818.99 121.127C1820.5 121.466 1821.89 121.815 1823.19 122.171L1816.55 121.753V121.753Z" fill="#172A51"/>
</svg>
