<svg width="100%" height="304" viewBox="0 0 1921 304" fill="none" xmlns="http://www.w3.org/2000/svg">
<path d="M1367.91 81.5688C1361.51 85.4457 1353.24 89.1203 1343.41 92.2548C1322.08 99.0645 1298.62 101.665 1280.99 99.9533C1301.22 96.6286 1348.23 78.3673 1334 71.4843C1334 71.4843 1331.98 72.5201 1274.72 52.7293C1187.33 22.5283 961.95 44.204 961.95 44.204C935.593 46.2231 909.041 48.8437 882.502 52.166C895.652 60.7151 911.717 68.286 931.516 73.598C945.538 77.3594 960.805 79.9323 976.466 81.7108L976.466 82.1037C951.115 79.6172 926.817 75.0444 906.215 67.2207C895.282 63.0631 885.627 58.1704 877.17 52.8387C875.363 53.0726 873.556 53.3065 871.749 53.5451C872.108 67.3021 877.17 81.1061 890.111 93.7521C903.39 106.736 923.652 117.892 945.827 127.598C945.641 127.522 945.455 127.446 945.269 127.371C913.384 114.302 886.216 98.3499 873.816 78.8249C868.794 70.9106 866.188 62.6769 865.439 54.3949C857.552 55.4737 849.664 56.6193 841.787 57.827C724.047 75.899 642.866 79.665 524.056 63.5503C519.044 67.7509 518.615 73.2498 525.454 80.4383L525.544 80.4812L527.082 81.1447C527.331 81.2593 527.601 81.3643 527.86 81.4726L528.639 81.7948C529.158 82.0135 529.698 82.2139 530.227 82.4187L531.814 83.0316C532.364 83.2269 532.903 83.4164 533.452 83.6092L534.261 83.8975C534.4 83.9443 534.53 83.9949 534.67 84.0398L535.079 84.1744L536.747 84.7142C537.296 84.9004 537.855 85.0613 538.424 85.2317L539.263 85.4842L539.682 85.6102C539.822 85.6517 539.962 85.6956 540.112 85.7343L541.819 86.2021L542.678 86.4365L543.546 86.6522L545.284 87.0847L547.041 87.4818L547.92 87.6799C548.209 87.742 548.509 87.8012 548.808 87.8618L550.585 88.2251L552.373 88.5549C552.672 88.6084 552.972 88.6661 553.271 88.7167L554.18 88.8647L555.078 89.0127C555.378 89.0599 555.677 89.1148 555.987 89.1554L557.804 89.4179L558.263 89.4833L558.723 89.5406L559.631 89.6561L560.55 89.7712C560.7 89.7912 560.849 89.8075 561.009 89.8242L561.469 89.8748C562.078 89.9406 562.697 90.0118 563.306 90.0733L565.163 90.2442C567.629 90.4571 570.105 90.6089 572.591 90.7082C575.078 90.808 577.574 90.8366 580.07 90.8156C581.348 90.8046 582.636 90.7774 583.914 90.7354C584.153 90.6223 584.383 90.5154 584.613 90.4127C582.696 90.3741 580.549 90.0738 578.382 89.4795C573.979 88.2742 566.381 84.3529 553.331 79.7843C555.847 78.7962 576.505 83.2918 580.908 84.4966C582.676 84.9811 584.263 85.604 585.591 86.3024C586.629 85.4499 587.927 84.6341 589.445 83.9229C593.299 82.1195 611.82 74.7819 614.626 75.3833C607.787 79.2831 602.894 82.6422 599.24 85.069C606.219 84.4008 619.189 84.8738 638.449 83.4947C636.552 86.0136 606.938 91.6247 600.358 92.5245C598.95 92.7169 597.572 92.8271 596.224 92.8773C599.799 95.1637 604.771 100.073 614.216 106.641C611.011 106.842 593.258 98.0569 589.644 95.9803C589.025 95.6294 588.466 95.2652 587.957 94.8944C587.608 95.302 587.208 95.7097 586.769 96.113C583.993 98.6534 569.835 109.754 566.64 110.017C573.918 101.782 576.964 96.092 579.74 93.551C580.868 92.5247 582.166 91.6474 583.514 90.9419L582.895 90.9676C582.576 90.9805 582.266 90.9949 581.956 91.003L581.018 91.0311C580.698 91.0407 580.389 91.0502 580.079 91.0545L579.141 91.0703C578.821 91.076 578.512 91.0827 578.202 91.0827C577.573 91.0832 576.954 91.0894 576.325 91.0865L574.448 91.0693L572.571 91.0264C570.065 90.9543 567.569 90.8139 565.083 90.6216C562.586 90.4297 560.12 90.1557 557.664 89.8354L555.827 89.5795C555.517 89.5395 555.218 89.4869 554.908 89.4402L554 89.2946L553.091 89.1495C552.782 89.0998 552.482 89.043 552.183 88.9905L550.375 88.6669L548.578 88.307C548.278 88.2459 547.979 88.1876 547.679 88.1256L546.791 87.927L545.024 87.5289L543.266 87.095L542.388 86.8783L541.529 86.6444L539.792 86.1733C539.652 86.1365 539.512 86.0916 539.372 86.0501L538.943 85.9231L538.094 85.6697C537.525 85.4993 536.956 85.337 536.397 85.1503L534.73 84.6038L534.31 84.4673C534.17 84.4219 534.031 84.3713 533.901 84.3231L533.072 84.0314C532.533 83.8357 531.984 83.6438 531.434 83.4458L529.827 82.8252C529.298 82.6176 528.759 82.4152 528.24 82.1937L527.451 81.8682C527.181 81.7593 526.922 81.6524 526.662 81.5378L526.442 81.4414C530.316 85.2315 536.157 89.475 544.354 94.2304C531.494 97.0925 515.818 96.6414 501.151 92.3955C501.141 92.6213 501.121 92.8475 501.101 93.0733C514.161 103.068 530.585 112.103 551.443 118.871C574.687 126.413 601.795 130.941 629.053 133.877C628.824 133.857 628.604 133.837 628.384 133.817C590.043 130.312 552.741 123.44 523.894 110.427C515.208 106.505 507.419 102.147 500.46 97.4917C500.44 97.5719 500.431 97.6516 500.411 97.7313C496.956 114.105 465.745 103.156 465.854 135.633C454.202 126.815 447.282 114.578 447.362 101.217L447.143 101.302C446.124 105.948 444.058 110.54 440.653 114.909C432.296 125.614 415.951 134.075 397.17 140.845C397.06 140.884 396.95 140.923 396.84 140.963C409.94 135.909 422.081 130.013 430.458 122.979C437.957 116.672 441.81 109.704 443.318 102.644C433.813 105.733 423.688 107.257 414.033 107.123C413.993 106.681 413.953 106.237 413.943 105.792C413.774 101.744 408.053 98.6919 401.752 99.427C401.613 99.4432 401.483 99.4595 401.343 99.4747C389.661 100.814 383.9 109.232 390.35 115.54C391.379 116.544 381.025 106.58 370.141 104.787C367.485 110.698 363.501 116.47 357.87 121.872C352.918 126.627 346.727 130.947 339.628 134.883C358.459 147.421 382.701 158.063 408.422 167.292C408.173 167.209 407.923 167.126 407.683 167.043C381.434 158.254 357.121 148.018 337.571 136.003C325.03 142.665 309.864 148.195 293.699 152.84C293.539 152.884 293.39 152.928 293.24 152.972C309.135 148.059 324.292 142.291 336.453 135.309C324.641 127.944 314.627 119.916 307.048 111.15C301.457 104.697 297.213 97.9948 294.128 91.1628C289.305 89.7704 284.832 87.579 281.248 84.6763C280.01 87.6969 277.733 90.4153 274.688 92.5748C271.443 91.1585 268.657 89.2024 266.581 86.8506C258.972 92.9071 252.862 99.4056 248.878 106.363C241.449 119.315 241.239 133.044 244.225 146.323C244.195 146.215 244.165 146.108 244.135 146C238.693 127.523 240.251 108.423 256.706 91.1714C259.052 88.7074 261.668 86.303 264.504 83.9603C263.625 82.4132 263.026 80.7502 262.757 78.9984L262.747 78.9697C262.517 77.4327 260.061 76.4398 257.764 76.9553C253.341 77.953 248.918 79.3372 244.355 81.1129C248.199 81.8977 251.594 83.2113 254.24 84.9039C245.034 84.1965 243.537 89.8429 236.877 90.779C237.186 91.379 237.456 91.9905 237.676 92.6172C239.952 98.9515 230.637 101.143 232.594 109.602C224.836 106.937 218.636 101.887 216.359 95.5522C216.319 95.4491 216.289 95.346 216.259 95.2429C212.734 97.2873 209.03 99.4926 205.136 101.856C201.362 104.14 203.049 108.196 208.141 108.939C220.162 110.694 230.826 114.19 239.023 118.936C208.36 118.526 208.989 134.433 187.662 135.971C206.643 144.723 228.249 152.188 252.861 157.426C287.178 164.727 325.099 167.625 362.411 168.411C362.112 168.41 361.802 168.408 361.503 168.407C309.324 168.123 256.823 163.291 212.443 149.422C202.758 146.397 193.592 143.018 184.926 139.357C188.31 144.378 192.923 149.275 208.01 151.006C201.17 153.01 193.423 154.153 185.275 154.358C206.802 173.349 214.67 195.862 214.779 207.671C204.934 208.716 192.094 207.425 177.696 204.095L188.439 186.101L156.458 198.061C155.379 197.703 154.301 197.335 153.223 196.958C145.055 194.117 138.855 189.616 135.87 184.96C135.62 202.251 123.599 217.86 115.102 224.633C109.071 222.496 103.021 218.273 97.5386 212.523L115.681 205.761L90.2096 203.437C89.8801 202.948 89.5406 202.453 89.2211 201.953C85.2572 195.866 86.9945 188.856 92.9753 185.76C84.3786 187.032 74.9433 187.159 65.4083 186.001C69.8115 196.703 60.9452 208.129 83.1713 221.968C59.7273 221.846 34.6364 214.8 15.7354 201.537C14.697 200.803 13.6786 200.06 12.7001 199.307C15.3959 215.874 22.5149 232.576 36.1541 248.624C53.5471 269.081 79.826 287.461 108.532 303.861C108.292 303.732 108.053 303.602 107.813 303.473C66.5671 281.208 31.2912 255.092 14.8572 225.012C8.73668 213.824 5.22207 202.417 3.76417 191.073C0.678966 187.175 -0.379433 183.383 0.129767 179.961C0.0898269 179.96 0.0399461 179.96 6.11002e-06 179.96L0.409317 -2.28468e-05L1919.91 0.000274641L1920.02 133.87C1920.02 133.87 1919.44 173.298 1896.23 193.873C1870.01 217.125 1827.96 232.639 1786.42 236.765C1782.31 231.8 1779.56 226.385 1778.22 220.679L1818.43 223.108L1777.35 214.851L1777.35 214.851C1777.09 211.061 1780.33 207.409 1786.19 204.857C1792.05 202.305 1799.96 201.108 1807.83 201.584C1822.33 202.459 1836.92 203.341 1836.92 203.341L1802.51 194.775C1802.64 194.524 1802.77 194.272 1802.9 194.02C1806.23 187.658 1818.59 183.341 1832.28 183.757C1841.16 184.026 1849.34 184.274 1849.34 184.274L1796.47 173.647C1797.91 172.204 1799.44 170.766 1801.05 169.336L1801.15 169.251C1786.28 170.858 1771.71 170.841 1758.93 169.234C1738.36 173.316 1716.5 175.125 1695.66 175.096C1695.48 175.095 1695.3 175.095 1695.13 175.094C1710.27 174.872 1726 173.792 1741.27 171.456C1746.79 170.611 1752.14 169.609 1757.32 168.471C1760.51 156.52 1777.44 143.87 1804.65 135.188C1824.09 128.983 1714.6 154.124 1714.6 154.124C1714.6 154.124 1778.83 133.145 1765.84 111.178C1765.84 111.178 1758.67 104.559 1752.84 105.231C1720.33 108.977 1691.14 129.598 1669.65 149.926C1674.26 161.772 1683.91 173.096 1700.24 182.793C1713.44 190.63 1730.14 197.072 1748.12 202.264C1747.9 202.206 1747.68 202.149 1747.46 202.091C1714.62 193.424 1686.8 180.458 1672.22 163.662C1669.5 160.53 1667.24 157.318 1665.39 154.05C1644.89 174.33 1632.43 193.144 1632.43 193.144C1632.43 193.144 1657.32 130.082 1623.53 129.097C1586.05 128.006 1564.1 153.641 1610.5 166.329C1585.85 165.388 1564.99 160.62 1552.38 151.897C1554.88 161.247 1561.67 170.272 1574.43 177.844C1583.45 183.2 1594.86 187.602 1607.15 191.151C1607 191.112 1606.85 191.073 1606.7 191.033C1584.25 185.11 1565.24 176.248 1555.27 164.769C1551.37 160.271 1548.85 155.536 1547.42 150.704C1530.55 172.652 1533.35 196.082 1552.54 220.746C1516.34 192.738 1495.61 164.069 1505.78 134.079C1501.23 137.435 1495.96 140.545 1489.84 143.263C1473.8 150.392 1452.74 154.003 1431.21 154.786C1431.06 154.791 1430.92 154.796 1430.78 154.801C1442.79 154.137 1454.76 152.673 1465.59 150.078C1485.37 145.343 1499.29 137.087 1508.37 127.779C1509.65 125.114 1511.19 122.437 1512.99 119.75C1523.29 96.131 1522.43 57.244 1425.87 93.933C1433.61 96.7588 1448.72 85.7304 1455.74 89.4565C1460.32 91.8885 1458.88 90.5802 1462.64 93.1349L1433.7 107.405L1468.47 97.3899C1471.95 100.126 1474.95 102.892 1477.47 105.65L1453.11 117.662L1480.81 109.682C1485.48 115.947 1487.58 122.071 1486.93 127.597C1464.58 127.077 1438.65 121.462 1415.88 111.664C1424.48 127.293 1421.28 143.788 1410.22 159C1410.13 159.112 1410.05 159.225 1409.97 159.338C1416.08 149.733 1419.5 139.606 1418.37 129.557C1417.54 122.159 1414.14 115.089 1408.75 108.409C1406.97 107.543 1405.2 106.65 1403.47 105.73C1390.96 99.0924 1381.48 91.8763 1375.25 84.7453C1373.94 94.6324 1369.92 104.404 1362.02 113.51C1347.43 130.306 1319.62 143.272 1286.77 151.939C1286.55 151.997 1286.33 152.054 1286.12 152.111C1304.09 146.919 1320.79 140.477 1333.99 132.64C1358.58 118.045 1368.01 99.7601 1367.93 81.5621L1367.91 81.5688ZM339.007 134.703C340.313 133.917 341.579 133.117 342.804 132.302C355.11 124.096 362.294 114.658 366.192 104.963C366.121 104.968 366.051 104.975 365.98 104.981C365.398 105.498 364.785 106.006 364.122 106.5C357.452 111.492 349.033 108.077 339.47 114.19C338.164 108.63 357.422 103.99 347.497 97.422C347.336 97.3148 319.58 86.548 307.615 81.715C305.605 80.9061 303.094 82.0663 303.657 83.5316C304.902 86.7986 304.882 90.1012 303.636 93.1169C303.255 93.089 302.883 93.0558 302.501 93.0183C307.826 105.679 316.967 117.982 331.443 129.218C333.854 131.085 336.376 132.913 339.008 134.702L339.007 134.703ZM140.617 166.028L135.227 174.991C135.138 175.135 135.068 175.281 134.989 175.425C134.84 174.836 134.681 174.248 134.492 173.658C133.996 172.063 133.371 170.508 132.656 168.985L140.617 166.028L140.617 166.028ZM103.464 182.108L101.03 182.734C99.5205 182.395 98.1238 182.046 96.8298 181.69L103.464 182.108L103.464 182.108Z" fill="#294989"/>
</svg>
