<svg width="1920" height="305" viewBox="0 0 1920 305" fill="#191221" xmlns="http://www.w3.org/2000/svg">
<path d="M552.11 223.122C558.512 219.245 566.782 215.57 576.604 212.436C597.94 205.626 621.394 203.026 639.026 204.737C618.797 208.062 571.788 226.323 586.019 233.206C586.019 233.206 588.035 232.17 645.297 251.961C732.688 282.162 958.067 260.486 958.067 260.486C984.424 258.467 1010.98 255.847 1037.51 252.524C1024.36 243.975 1008.3 236.404 988.501 231.092C974.479 227.331 959.212 224.758 943.551 222.979V222.587C968.902 225.073 993.2 229.646 1013.8 237.47C1024.73 241.627 1034.39 246.52 1042.85 251.852C1044.65 251.618 1046.46 251.384 1048.27 251.145C1047.91 237.388 1042.85 223.584 1029.91 210.938C1016.63 197.954 996.366 186.798 974.191 177.092C974.376 177.168 974.562 177.244 974.748 177.319C1006.63 190.388 1033.8 206.34 1046.2 225.865C1051.22 233.78 1053.83 242.013 1054.58 250.295C1062.47 249.217 1070.35 248.071 1078.23 246.863C1195.97 228.791 1277.15 225.025 1395.96 241.14C1400.97 236.939 1401.4 231.44 1394.56 224.252L1394.47 224.209L1392.94 223.546C1392.69 223.431 1392.42 223.326 1392.16 223.218L1391.38 222.895C1390.86 222.677 1390.32 222.476 1389.79 222.271L1388.2 221.659C1387.65 221.463 1387.11 221.274 1386.57 221.081L1385.76 220.793C1385.62 220.746 1385.49 220.695 1385.35 220.65L1384.94 220.516L1383.27 219.976C1382.72 219.79 1382.16 219.629 1381.59 219.459L1380.75 219.206L1380.33 219.08C1380.2 219.038 1380.06 218.995 1379.91 218.956L1378.2 218.488L1377.34 218.254L1376.47 218.038L1374.73 217.606L1372.98 217.208L1372.1 217.01C1371.81 216.948 1371.51 216.889 1371.21 216.828L1369.43 216.465L1367.64 216.135C1367.34 216.082 1367.05 216.024 1366.75 215.973L1365.84 215.826L1364.94 215.678C1364.64 215.63 1364.34 215.575 1364.03 215.535L1362.21 215.272L1361.75 215.207L1361.29 215.15L1360.39 215.034L1359.47 214.919C1359.32 214.899 1359.17 214.883 1359.01 214.866L1358.55 214.815C1357.94 214.75 1357.32 214.678 1356.71 214.617L1354.85 214.446C1352.39 214.233 1349.91 214.081 1347.43 213.982C1344.94 213.882 1342.44 213.854 1339.95 213.875C1338.67 213.886 1337.38 213.913 1336.1 213.955C1335.86 214.068 1335.63 214.175 1335.4 214.277C1337.32 214.316 1339.47 214.616 1341.63 215.211C1346.04 216.416 1353.64 220.337 1366.69 224.906C1364.17 225.894 1343.51 221.398 1339.11 220.194C1337.34 219.709 1335.75 219.086 1334.43 218.388C1333.39 219.24 1332.09 220.056 1330.57 220.767C1326.72 222.571 1308.2 229.908 1305.39 229.307C1312.23 225.407 1317.12 222.048 1320.78 219.621C1313.8 220.289 1300.83 219.816 1281.57 221.195C1283.47 218.677 1313.08 213.066 1319.66 212.166C1321.07 211.973 1322.44 211.863 1323.79 211.813C1320.22 209.527 1315.25 204.617 1305.8 198.049C1309.01 197.848 1326.76 206.633 1330.37 208.71C1330.99 209.061 1331.55 209.425 1332.06 209.796C1332.41 209.388 1332.81 208.981 1333.25 208.577C1336.02 206.037 1350.18 194.936 1353.38 194.673C1346.1 202.908 1343.05 208.598 1340.28 211.139C1339.15 212.166 1337.85 213.043 1336.5 213.748L1337.12 213.723C1337.44 213.71 1337.75 213.695 1338.06 213.687L1339 213.659C1339.32 213.65 1339.63 213.64 1339.94 213.636L1340.88 213.62C1341.2 213.614 1341.51 213.608 1341.81 213.608C1342.44 213.607 1343.06 213.601 1343.69 213.604L1345.57 213.621L1347.45 213.664C1349.95 213.736 1352.45 213.876 1354.93 214.069C1357.43 214.261 1359.9 214.535 1362.35 214.855L1364.19 215.111C1364.5 215.151 1364.8 215.203 1365.11 215.25L1366.02 215.396L1366.93 215.541C1367.24 215.59 1367.54 215.647 1367.83 215.7L1369.64 216.023L1371.44 216.383C1371.74 216.444 1372.04 216.503 1372.34 216.565L1373.23 216.763L1374.99 217.161L1376.75 217.595L1377.63 217.812L1378.49 218.046L1380.23 218.517C1380.37 218.554 1380.51 218.599 1380.64 218.64L1381.07 218.767L1381.92 219.021C1382.49 219.191 1383.06 219.353 1383.62 219.54L1385.29 220.086L1385.71 220.223C1385.85 220.268 1385.99 220.319 1386.12 220.367L1386.95 220.659C1387.48 220.854 1388.03 221.046 1388.58 221.244L1390.19 221.865C1390.72 222.073 1391.26 222.275 1391.78 222.497L1392.57 222.822C1392.84 222.931 1393.1 223.038 1393.36 223.152L1393.57 223.249C1389.7 219.459 1383.86 215.215 1375.66 210.46C1388.52 207.598 1404.2 208.049 1418.87 212.295C1418.88 212.069 1418.9 211.843 1418.92 211.617C1405.86 201.622 1389.43 192.587 1368.57 185.819C1345.33 178.277 1318.22 173.749 1290.96 170.813C1291.19 170.833 1291.41 170.853 1291.63 170.874C1329.97 174.378 1367.28 181.251 1396.12 194.264C1404.81 198.185 1412.6 202.543 1419.56 207.199C1419.58 207.118 1419.59 207.039 1419.61 206.959C1423.06 190.585 1454.27 201.534 1454.16 169.057C1465.82 177.875 1472.73 190.112 1472.65 203.473L1472.87 203.388C1473.89 198.742 1475.96 194.15 1479.36 189.781C1487.72 179.076 1504.07 170.615 1522.85 163.845C1522.96 163.806 1523.07 163.767 1523.18 163.727C1510.08 168.781 1497.94 174.677 1489.56 181.711C1482.06 188.019 1478.21 194.986 1476.7 202.046C1486.2 198.957 1496.33 197.433 1505.98 197.568C1506.02 198.01 1506.06 198.453 1506.07 198.898C1506.24 202.947 1511.96 205.998 1518.26 205.263C1518.4 205.247 1518.53 205.231 1518.67 205.215C1530.36 203.876 1536.12 195.458 1529.67 189.15C1528.64 188.146 1538.99 198.11 1549.88 199.903C1552.53 193.992 1556.52 188.22 1562.15 182.818C1567.1 178.064 1573.29 173.743 1580.39 169.807C1561.56 157.269 1537.32 146.627 1511.59 137.398C1511.84 137.482 1512.09 137.565 1512.33 137.648C1538.58 146.436 1562.9 156.673 1582.45 168.688C1594.99 162.025 1610.15 156.496 1626.32 151.851C1626.48 151.806 1626.63 151.762 1626.78 151.718C1610.88 156.632 1595.73 162.399 1583.56 169.381C1595.38 176.746 1605.39 184.774 1612.97 193.54C1618.56 199.993 1622.8 206.695 1625.89 213.527C1630.71 214.92 1635.18 217.111 1638.77 220.014C1640.01 216.993 1642.28 214.275 1645.33 212.115C1648.57 213.532 1651.36 215.488 1653.44 217.84C1661.04 211.783 1667.16 205.285 1671.14 198.328C1678.57 185.376 1678.78 171.647 1675.79 158.368C1675.82 158.475 1675.85 158.582 1675.88 158.69C1681.32 177.167 1679.77 196.267 1663.31 213.519C1660.96 215.983 1658.35 218.387 1655.51 220.73C1656.39 222.277 1656.99 223.94 1657.26 225.692L1657.27 225.72C1657.5 227.257 1659.96 228.25 1662.25 227.735C1666.68 226.737 1671.1 225.353 1675.66 223.577C1671.82 222.792 1668.42 221.479 1665.78 219.786C1674.98 220.494 1676.48 214.847 1683.14 213.911C1682.83 213.311 1682.56 212.7 1682.34 212.073C1680.06 205.739 1689.38 203.547 1687.42 195.088C1695.18 197.753 1701.38 202.804 1703.66 209.138C1703.7 209.241 1703.73 209.344 1703.76 209.447C1707.28 207.403 1710.99 205.198 1714.88 202.834C1718.66 200.55 1716.97 196.494 1711.88 195.751C1699.85 193.996 1689.19 190.5 1680.99 185.754C1711.66 186.164 1711.03 170.257 1732.35 168.719C1713.37 159.968 1691.77 152.502 1667.16 147.264C1632.84 139.963 1594.92 137.065 1557.61 136.279C1557.91 136.281 1558.21 136.282 1558.51 136.283C1610.69 136.567 1663.19 141.399 1707.57 155.268C1717.26 158.293 1726.43 161.672 1735.09 165.333C1731.71 160.312 1727.09 155.415 1712.01 153.684C1718.85 151.68 1726.59 150.537 1734.74 150.333C1713.22 131.342 1705.35 108.829 1705.24 97.0196C1715.08 95.9738 1727.92 97.2649 1742.32 100.595L1731.58 118.589L1763.56 106.629C1764.64 106.987 1765.72 107.355 1766.79 107.732C1774.96 110.574 1781.16 115.074 1784.15 119.73C1784.4 102.439 1796.42 86.83 1804.92 80.057C1810.95 82.1945 1817 86.417 1822.48 92.167L1804.34 98.9294L1829.81 101.254C1830.14 101.742 1830.48 102.237 1830.8 102.738C1834.76 108.824 1833.02 115.835 1827.04 118.931C1835.64 117.658 1845.07 117.531 1854.61 118.689C1850.21 107.988 1859.07 96.5615 1836.85 82.7225C1860.29 82.8437 1885.38 89.8902 1904.28 103.154C1905.32 103.887 1906.34 104.63 1907.32 105.383C1904.62 88.8161 1897.5 72.1141 1883.86 56.0661C1866.47 35.6091 1840.19 17.2291 1811.49 0.829102C1811.72 0.958462 1811.96 1.08782 1812.2 1.21718C1853.45 23.4822 1888.73 49.5982 1905.16 79.6782C1911.28 90.8662 1914.8 102.273 1916.25 113.617C1919.34 117.515 1920.4 121.307 1919.89 124.729C1919.93 124.73 1919.98 124.73 1920.02 124.73L1919.61 304.69H0.10783L0 170.82C0 170.82 0.577112 131.392 23.785 110.817C50.012 87.5651 92.062 72.0511 133.595 67.9251C137.706 72.8908 140.455 78.3051 141.797 84.0111L101.587 81.5824L142.669 89.8389V89.8394C142.923 93.629 139.691 97.2811 133.827 99.8334C127.963 102.386 120.054 103.582 112.186 103.107C97.691 102.231 83.099 101.35 83.099 101.35L117.506 109.915C117.377 110.167 117.247 110.419 117.115 110.67C113.786 117.032 101.428 121.349 87.7376 120.933C78.8543 120.665 70.6726 120.416 70.6726 120.416L123.552 131.043C122.107 132.486 120.577 133.925 118.965 135.355L118.868 135.44C133.74 133.832 148.308 133.85 161.089 135.457C181.653 131.375 203.516 129.566 224.355 129.595C224.534 129.595 224.712 129.596 224.891 129.596C209.749 129.819 194.014 130.898 178.744 133.235C173.225 134.079 167.873 135.081 162.695 136.219C159.511 148.17 142.574 160.82 115.372 169.502C95.93 175.707 205.414 150.566 205.414 150.566C205.414 150.566 141.187 171.545 154.177 193.512C154.177 193.512 161.349 200.132 167.181 199.46C199.691 195.713 228.875 175.093 250.365 154.765C245.756 142.919 236.112 131.595 219.777 121.898C206.574 114.061 189.873 107.619 171.899 102.427C172.119 102.484 172.338 102.541 172.557 102.599C205.401 111.266 233.216 124.232 247.8 141.028C250.52 144.161 252.78 147.372 254.628 150.64C275.128 130.36 287.584 111.546 287.584 111.546C287.584 111.546 262.695 174.608 296.49 175.593C333.964 176.684 355.917 151.049 309.52 138.361C334.172 139.302 355.025 144.071 367.638 152.793C365.134 143.444 358.348 134.418 345.592 126.846C336.569 121.49 325.155 117.088 312.871 113.539C313.02 113.578 313.17 113.617 313.32 113.657C335.767 119.58 354.777 128.442 364.743 139.921C368.649 144.419 371.167 149.155 372.602 153.986C389.464 132.038 386.664 108.608 367.481 83.944C403.681 111.952 424.403 140.621 414.235 170.611C418.786 167.255 424.06 164.145 430.177 161.427C446.217 154.298 467.273 150.687 488.811 149.904C488.953 149.899 489.097 149.894 489.241 149.889C477.23 150.553 465.259 152.017 454.424 154.612C434.65 159.348 420.726 167.603 411.649 176.911C410.363 179.577 408.827 182.253 407.032 184.94C396.724 208.559 397.592 247.446 494.149 210.757C486.412 207.932 471.3 218.96 464.279 215.234C459.695 212.802 461.133 214.11 457.374 211.555L486.317 197.285L451.546 207.3C448.069 204.564 445.065 201.798 442.546 199.041L466.91 187.029L439.203 195.009C434.536 188.744 432.441 182.62 433.084 177.094C455.433 177.613 481.366 183.228 504.139 193.027C495.534 177.398 498.736 160.903 509.799 145.691C509.882 145.578 509.965 145.465 510.048 145.353C503.933 154.958 500.513 165.085 501.644 175.134C502.477 182.532 505.879 189.602 511.264 196.282C513.051 197.148 514.813 198.041 516.545 198.96C529.054 205.598 538.54 212.814 544.763 219.945C546.073 210.058 550.095 200.286 558.001 191.18C572.584 174.384 600.399 161.418 633.244 152.751C633.464 152.694 633.682 152.637 633.902 152.579C615.928 157.772 599.227 164.213 586.024 172.05C561.436 186.645 552.009 204.93 552.092 223.128L552.11 223.122ZM1581.01 169.988C1579.7 170.773 1578.44 171.573 1577.21 172.389C1564.91 180.594 1557.72 190.033 1553.83 199.728C1553.9 199.722 1553.97 199.716 1554.04 199.709C1554.62 199.192 1555.23 198.684 1555.9 198.19C1562.57 193.198 1570.98 196.613 1580.55 190.5C1581.85 196.06 1562.6 200.7 1572.52 207.268C1572.68 207.375 1600.44 218.142 1612.4 222.975C1614.41 223.784 1616.92 222.624 1616.36 221.159C1615.11 217.892 1615.13 214.589 1616.38 211.573C1616.76 211.601 1617.13 211.634 1617.52 211.672C1612.19 199.011 1603.05 186.708 1588.57 175.472C1586.16 173.605 1583.64 171.778 1581.01 169.988L1581.01 169.988ZM1779.4 138.663L1784.79 129.699C1784.88 129.555 1784.95 129.409 1785.03 129.265C1785.18 129.854 1785.34 130.442 1785.52 131.032C1786.02 132.627 1786.65 134.182 1787.36 135.706L1779.4 138.663L1779.4 138.663ZM1816.55 122.583L1818.99 121.956C1820.5 122.295 1821.89 122.644 1823.19 123L1816.55 122.583V122.583Z" fill="#191221"/>
</svg>
